<?xml version="1.0" encoding="utf-8"?>
<!-- Generator: Adobe Illustrator 25.4.0, SVG Export Plug-In . SVG Version: 6.00 Build 0)  -->
<svg version="1.1" id="Layer_1" xmlns="http://www.w3.org/2000/svg" xmlns:xlink="http://www.w3.org/1999/xlink" x="0px" y="0px"
	 viewBox="0 0 559.4 566" style="enable-background:new 0 0 559.4 566;" xml:space="preserve">
<style type="text/css">
	.st0{fill:#93DACF;}
	.st1{fill:#007F6E;}
	.st2{fill:#FF595A;}
	.st3{fill:#221F20;}
	.st4{fill:#FFFFFF;}
	.st5{clip-path:url(#SVGID_00000077292004319722510670000015913836194033919113_);}
</style>
<path class="st0" d="M327.7,252c-47,0-85.1,41.8-85.1,93.3v124.4h85.1V252z"/>
<rect x="292.4" y="387.5" class="st1" width="17.5" height="19.2"/>
<path class="st1" d="M301.4,444.7c0-0.1,0-0.2,0-0.3c-0.3-9.9-7.9-17.6-16.9-17.2c-8.6,0.3-15.4,7.9-15.7,17.2v0.3l0,0v25h32.6
	V444.7z"/>
<rect x="292.4" y="321" class="st2" width="17.5" height="19.2"/>
<rect x="261.8" y="354.6" class="st3" width="17.5" height="19.2"/>
<rect x="292.4" y="354.6" class="st4" width="17.5" height="19.2"/>
<g>
	<defs>
		<rect id="SVGID_1_" x="292.4" y="354.6" width="17.5" height="19.2"/>
	</defs>
	<clipPath id="SVGID_00000005975569329613792840000013938820791349948570_">
		<use xlink:href="#SVGID_1_"  style="overflow:visible;"/>
	</clipPath>
	<g style="clip-path:url(#SVGID_00000005975569329613792840000013938820791349948570_);">
		<path class="st4" d="M303.3,372.3c0,1.3-1,2.4-2.2,2.4c-1.2,0-2.2-1.1-2.2-2.4c0-1.3,1-2.4,2.2-2.4c0,0,0,0,0,0
			C302.3,369.9,303.3,370.9,303.3,372.3"/>
	</g>
</g>
<polygon class="st1" points="200.9,469.4 214.3,417.8 227.7,469.4 "/>
<polygon class="st1" points="182,469.4 191.7,431.9 201.5,469.4 "/>
</svg>
