<?xml version="1.0" encoding="utf-8"?>
<!-- Generator: Adobe Illustrator 25.4.0, SVG Export Plug-In . SVG Version: 6.00 Build 0)  -->
<svg version="1.1" id="Layer_1" xmlns="http://www.w3.org/2000/svg" xmlns:xlink="http://www.w3.org/1999/xlink" x="0px" y="0px"
	 viewBox="0 0 559.4 566" style="enable-background:new 0 0 559.4 566;" xml:space="preserve">
<style type="text/css">
	.st0{fill:#D9B7E2;}
	.st1{fill:#FF595A;}
	.st2{fill:#007F6E;}
	.st3{fill:#3D7CC9;}
	.st4{fill:#FFFFFF;}
</style>
<path class="st0" d="M121,477.2V529h72.7V384.8C153.5,384.8,121,426.2,121,477.2"/>
<path class="st1" d="M173,511.6c0-0.1,0-0.2,0-0.3c-0.3-9.8-6.7-17.4-14.4-17.1c-7.3,0.3-13.2,7.8-13.4,17.1v0.3l0,0V529H173V511.6z
	"/>
<rect x="222.6" y="412.2" class="st0" width="8" height="51.2"/>
<path class="st2" d="M245,405.5c0,12.9-8.2,23.4-18.4,23.4c-10.2,0-18.4-10.4-18.4-23.3c0-12.9,8.2-23.4,18.4-23.4c0,0,0,0,0.1,0
	C236.8,382.2,245,392.6,245,405.5C245,405.5,245,405.5,245,405.5"/>
<rect x="93.8" y="511.2" class="st0" width="8" height="17.8"/>
<path class="st2" d="M111.9,500.9c0,9.9-6.3,17.9-14.1,18c-7.8,0-14.1-8-14.1-17.9c0-9.9,6.3-17.9,14.1-18c0,0,0,0,0,0
	C105.6,483,111.9,491,111.9,500.9"/>
<rect x="164.7" y="456.2" class="st3" width="15" height="19"/>
<rect x="138.6" y="456.2" class="st4" width="15" height="19"/>
<rect x="164.7" y="423.6" class="st2" width="15" height="19"/>
</svg>
