<?xml version="1.0" encoding="utf-8"?>
<!-- Generator: Adobe Illustrator 25.4.0, SVG Export Plug-In . SVG Version: 6.00 Build 0)  -->
<svg version="1.1" id="Layer_1" xmlns="http://www.w3.org/2000/svg" xmlns:xlink="http://www.w3.org/1999/xlink" x="0px" y="0px"
	 viewBox="0 0 559.4 566" style="enable-background:new 0 0 559.4 566;" xml:space="preserve">
<style type="text/css">
	.st0{fill:#FF595A;}
	.st1{fill:#D9B7E2;}
	.st2{fill:#007F6E;}
	.st3{fill:#FFC629;}
	.st4{fill:#BFE8E1;}
	.st5{fill:#FFFFFF;}
	.st6{clip-path:url(#SVGID_00000000928449004162642740000018272835048043027638_);}
	.st7{fill:#E7BEDB;}
	.st8{clip-path:url(#SVGID_00000062176487233190214140000007040126618092221867_);}
	.st9{fill:#93DACF;}
</style>
<g id="Layer_3">
	<path class="st0" d="M260.8,350.8v158h-84.2v-158c0-25.2,18.4-45.5,41.1-45.6h1.9C242.3,305.3,260.8,325.7,260.8,350.8z"/>
	<rect x="292.1" y="457.3" class="st1" width="9.2" height="51.6"/>
	<ellipse class="st2" cx="296.7" cy="442" rx="21.3" ry="23.5"/>
	<rect x="188.7" y="480.5" class="st3" width="7.5" height="8.3"/>
	<path class="st1" d="M190.2,491.4h4.4c2,0,3.6,1.8,3.6,4v0V521l0,0h-11.6l0,0v-25.5C186.6,493.2,188.2,491.5,190.2,491.4
		C190.2,491.4,190.2,491.4,190.2,491.4z"/>
	<rect x="194.9" y="363.2" class="st2" width="17.3" height="19.1"/>
	<rect x="194.9" y="396.8" class="st1" width="17.3" height="19.1"/>
	<rect x="225.1" y="396.8" class="st4" width="17.3" height="19.1"/>
	<rect x="194.9" y="429.6" class="st5" width="17.3" height="19.1"/>
	<g>
		<defs>
			<rect id="SVGID_1_" x="194.9" y="429.6" width="17.3" height="19.1"/>
		</defs>
		<clipPath id="SVGID_00000066499580328120020510000000586095342201761194_">
			<use xlink:href="#SVGID_1_"  style="overflow:visible;"/>
		</clipPath>
		<g style="clip-path:url(#SVGID_00000066499580328120020510000000586095342201761194_);">
			<rect x="197.8" y="434.7" class="st3" width="4.9" height="5.4"/>
			<path class="st7" d="M198.8,441.8h2.9c1.3,0,2.3,1.2,2.3,2.6c0,0,0,0,0,0v16.7l0,0h-7.6l0,0v-16.7
				C196.4,443,197.4,441.8,198.8,441.8C198.7,441.8,198.7,441.8,198.8,441.8z"/>
			<rect x="204.5" y="431.8" class="st3" width="4.9" height="5.4"/>
			<path class="st7" d="M205.5,438.9h2.9c1.3,0,2.3,1.2,2.3,2.6c0,0,0,0,0,0v16.7l0,0h-7.6l0,0v-16.7
				C203.1,440.1,204.2,438.9,205.5,438.9C205.5,438.9,205.5,438.9,205.5,438.9z"/>
		</g>
	</g>
	<rect x="225.1" y="363.2" class="st5" width="17.3" height="19.1"/>
	<g>
		<defs>
			<rect id="SVGID_00000035494343061448063500000013494808069400476807_" x="225.1" y="363.2" width="17.3" height="19.1"/>
		</defs>
		<clipPath id="SVGID_00000154400483630596764960000013262201674640747925_">
			<use xlink:href="#SVGID_00000035494343061448063500000013494808069400476807_"  style="overflow:visible;"/>
		</clipPath>
		<g style="clip-path:url(#SVGID_00000154400483630596764960000013262201674640747925_);">
			<rect x="230.9" y="377.8" class="st9" width="5.4" height="6"/>
			<path class="st0" d="M239.6,373c0,3.6-2.6,6.5-5.9,6.5s-5.9-2.9-5.9-6.5H239.6z"/>
			<ellipse class="st9" cx="233.6" cy="369" rx="2.4" ry="2.7"/>
		</g>
	</g>
	<rect x="203.7" y="470.2" class="st5" width="29.9" height="39"/>
	<rect x="213.9" y="505.4" class="st9" width="9.6" height="10.6"/>
	<path class="st0" d="M229.1,492.4c0.2,6.4-4.2,11.8-10,12c-5.8,0.3-10.6-4.7-10.9-11c0-0.3,0-0.7,0-1H229.1z"/>
	<ellipse class="st9" cx="218.7" cy="487.3" rx="3.5" ry="3.8"/>
</g>
</svg>
