<?xml version="1.0" encoding="utf-8"?>
<!-- Generator: Adobe Illustrator 25.4.0, SVG Export Plug-In . SVG Version: 6.00 Build 0)  -->
<svg version="1.1" id="Layer_1" xmlns="http://www.w3.org/2000/svg" xmlns:xlink="http://www.w3.org/1999/xlink" x="0px" y="0px"
	 viewBox="0 0 559.4 566" style="enable-background:new 0 0 559.4 566;" xml:space="preserve">
<style type="text/css">
	.st0{fill:#D9B7E2;}
	.st1{fill:#FF595A;}
	.st2{fill:#007F6E;}
	.st3{fill:#3D7CC9;}
	.st4{fill:#FFFFFF;}
	.st5{fill:#FFC629;}
</style>
<path class="st0" d="M105.8,426.6v24.2h43.2v-67.5C125.2,383.4,105.9,402.7,105.8,426.6"/>
<path class="st1" d="M136.8,442.7c0,0,0-0.1,0-0.1c-0.2-4.6-4-8.1-8.6-8c-4.3,0.2-7.8,3.6-8,8v0.1l0,0v8.1h16.6V442.7z"/>
<polygon class="st2" points="183.6,334.9 190.4,311 197.2,334.9 "/>
<polygon class="st2" points="176.9,343.3 181.9,325.9 186.8,343.3 "/>
<rect x="166.3" y="396.2" class="st0" width="4.7" height="23.9"/>
<path class="st2" d="M179.6,393.1c0,6-4.9,10.9-10.9,11c-6,0-10.9-4.9-11-10.9c0-6,4.9-10.9,10.9-11c0,0,0,0,0,0
	C174.7,382.2,179.6,387.1,179.6,393.1C179.6,393.1,179.6,393.1,179.6,393.1"/>
<rect x="89.7" y="442.5" class="st0" width="4.7" height="8.3"/>
<path class="st2" d="M100.4,437.7c0,4.6-3.7,8.4-8.4,8.4s-8.4-3.7-8.4-8.4c0-4.6,3.7-8.4,8.4-8.4c0,0,0,0,0,0
	C96.7,429.3,100.4,433.1,100.4,437.7"/>
<polygon class="st3" points="247.7,335.4 204.5,335.4 204.5,288.6 225.7,268.5 247.7,288.6 "/>
<rect x="219.2" y="320.3" class="st0" width="13.4" height="15.1"/>
<rect x="213.9" y="289.4" class="st1" width="8.9" height="8.9"/>
<rect x="131.8" y="416.8" class="st3" width="8.9" height="8.9"/>
<rect x="116.3" y="416.8" class="st4" width="8.9" height="8.9"/>
<rect x="131.8" y="401.6" class="st2" width="8.9" height="8.9"/>
<rect x="213.9" y="304.7" class="st4" width="8.9" height="8.9"/>
<rect x="229.5" y="304.7" class="st5" width="8.9" height="8.9"/>
</svg>
