<?xml version="1.0" encoding="utf-8"?>
<!-- Generator: Adobe Illustrator 25.4.0, SVG Export Plug-In . SVG Version: 6.00 Build 0)  -->
<svg version="1.1" id="Layer_1" xmlns="http://www.w3.org/2000/svg" xmlns:xlink="http://www.w3.org/1999/xlink" x="0px" y="0px"
	 viewBox="0 0 559.4 566" style="enable-background:new 0 0 559.4 566;" xml:space="preserve">
<style type="text/css">
	.st0{fill:#FF595A;}
	.st1{fill:#A7DED5;}
	.st2{fill:#D9B7E2;}
	.st3{fill:#007F6E;}
	.st4{fill:#3D7CC9;}
	.st5{fill:#FFC629;}
	.st6{fill:#FFFFFF;}
	.st7{clip-path:url(#SVGID_00000071526501377829064230000006591620475137655478_);}
	.st8{fill:#93DACF;}
	.st9{fill:#FF8672;}
	.st10{fill:#221F1F;}
	.st11{clip-path:url(#SVGID_00000129183214596659642790000010116842639520446122_);}
	.st12{clip-path:url(#SVGID_00000109712620817731379990000006008744755475084478_);}
	.st13{fill:#BFE8E1;}
	.st14{clip-path:url(#SVGID_00000004517104038987663050000004680620007592824980_);}
	.st15{fill:#E7BEDB;}
	.st16{clip-path:url(#SVGID_00000096025991183307803330000007987633030225852290_);}
	.st17{clip-path:url(#SVGID_00000144310426724302101490000011260479204116070555_);}
	.st18{clip-path:url(#SVGID_00000052782661073538370990000010519342797533052554_);}
	.st19{clip-path:url(#SVGID_00000182492570083582307950000002608118622397635752_);}
	.st20{fill:#66C9BA;}
	.st21{clip-path:url(#SVGID_00000011006361239494912150000010601506195926915006_);}
</style>
<g id="Layer_3">
	<path class="st0" d="M252.3,218.6v110h-60.4v-110c0-17.5,13.2-31.7,29.5-31.7h1.4C239.1,186.8,252.3,201,252.3,218.6z"/>
	<path class="st1" d="M170.5,240.7c-33.3,0-60.2,29-60.2,64.8v86.4h60.2V240.7z"/>
	<path class="st2" d="M229.7,484.6v36.3H290V419.8C256.7,419.8,229.7,448.8,229.7,484.6C229.7,484.5,229.7,484.6,229.7,484.6z"/>
	<rect x="145.5" y="334.8" class="st3" width="12.4" height="13.3"/>
	<path class="st3" d="M151.8,374.5c0-0.1,0-0.2,0-0.2c0-6.9-5.2-12.4-11.5-12.4c-6.4,0-11.5,5.6-11.5,12.4v0.2l0,0v17.4h23.1v-17.4
		H151.8z"/>
	<ellipse class="st4" cx="170.5" cy="383.4" rx="3.9" ry="4.2"/>
	<path class="st5" d="M165.4,391c2.8-2.9,7.3-2.9,10.1,0c2.5,2.6,2.9,6.7,1.1,9.8c-0.7,1.1-1.6,2.1-2.7,2.7c-1,0.6-2.2,0.9-3.4,0.9
		c-1.2,0-2.3-0.3-3.4-0.9c-1.1-0.7-2.1-1.6-2.7-2.7c-0.8-1.2-1.1-2.6-1.1-4.1C163.2,394.6,164,392.5,165.4,391z"/>
	<ellipse class="st6" cx="170.5" cy="396.6" rx="2.6" ry="2.8"/>
	<polygon class="st4" points="131,399.7 140.5,383 150,399.7 	"/>
	<rect x="136.9" y="375.5" class="st0" width="7.3" height="7.8"/>
	<polygon class="st4" points="158.4,455.4 167.9,438.7 177.4,455.4 	"/>
	<rect x="164.3" y="431.2" class="st0" width="7.3" height="7.8"/>
	<rect x="145.5" y="288.6" class="st0" width="12.4" height="13.3"/>
	<g>
		<g>
			<defs>
				<rect id="SVGID_1_" x="145.5" y="288.6" width="12.4" height="13.3"/>
			</defs>
			<clipPath id="SVGID_00000057834972064764687180000017088358066968476039_">
				<use xlink:href="#SVGID_1_"  style="overflow:visible;"/>
			</clipPath>
			<g style="clip-path:url(#SVGID_00000057834972064764687180000017088358066968476039_);">
				<ellipse class="st8" cx="151.7" cy="293.2" rx="2.3" ry="2.4"/>
				<path class="st5" d="M148.7,297.6c1.6-1.7,4.2-1.7,5.9,0c0.8,0.8,1.3,2,1.3,3.2c0,0.9-0.2,1.7-0.7,2.4c-0.4,0.7-1,1.2-1.6,1.6
					c-1.9,1-4.3,0.3-5.5-1.6c-0.4-0.7-0.7-1.5-0.7-2.4C147.5,299.7,147.9,298.5,148.7,297.6z"/>
				<ellipse class="st9" cx="151.7" cy="300.9" rx="1.5" ry="1.6"/>
			</g>
		</g>
	</g>
	<rect x="123.8" y="311.9" class="st10" width="12.4" height="13.3"/>
	<g>
		<g>
			<defs>
				<rect id="SVGID_00000076576753225169966100000008290823437945811841_" x="123.8" y="311.9" width="12.4" height="13.3"/>
			</defs>
			<clipPath id="SVGID_00000005231145271374467310000015727945577005525664_">
				<use xlink:href="#SVGID_00000076576753225169966100000008290823437945811841_"  style="overflow:visible;"/>
			</clipPath>
			<g style="clip-path:url(#SVGID_00000005231145271374467310000015727945577005525664_);">
				<polygon class="st8" points="124.3,329 130.3,318.4 136.2,329 				"/>
				<rect x="128" y="313.7" class="st0" width="4.6" height="5"/>
			</g>
		</g>
	</g>
	<rect x="145.5" y="311.9" class="st6" width="12.4" height="13.3"/>
	<g>
		<g>
			<defs>
				<rect id="SVGID_00000166661151764825094980000004406422201059030194_" x="145.5" y="311.9" width="12.4" height="13.3"/>
			</defs>
			<clipPath id="SVGID_00000126306983554183953770000003645845622467594935_">
				<use xlink:href="#SVGID_00000166661151764825094980000004406422201059030194_"  style="overflow:visible;"/>
			</clipPath>
			<g style="clip-path:url(#SVGID_00000126306983554183953770000003645845622467594935_);">
				<ellipse class="st8" cx="151.7" cy="316.3" rx="2.4" ry="2.5"/>
				<path class="st5" d="M148.6,320.8c1.7-1.8,4.4-1.8,6.1,0c0.9,0.9,1.4,2.1,1.4,3.4c0,1.7-0.9,3.4-2.4,4.1c-1.3,0.7-2.8,0.7-4.1,0
					c-0.7-0.4-1.2-0.9-1.7-1.6c-0.4-0.7-0.7-1.6-0.7-2.5C147.3,323,147.7,321.7,148.6,320.8z"/>
				<ellipse class="st6" cx="151.7" cy="324.2" rx="1.6" ry="1.7"/>
			</g>
		</g>
	</g>
	<path class="st0" d="M272.8,508.8c0-0.1,0-0.2,0-0.2c-0.2-6.9-5.6-12.2-11.9-12c-6.1,0.2-10.9,5.5-11.1,12c0,0.1,0,0.1,0,0.2l0,0
		V521h23.1v-12.2H272.8z"/>
	<polygon class="st3" points="339.7,545.7 350.8,503.8 361.9,545.7 	"/>
	<polygon class="st3" points="266.3,374.9 275.8,339.1 285.2,374.9 	"/>
	<polygon class="st3" points="257,387.5 263.9,361.5 270.8,387.5 	"/>
	<polygon class="st3" points="329.5,545.7 336.4,519.7 343.3,545.7 	"/>
	<rect x="222.4" y="387" class="st2" width="6.6" height="35.9"/>
	<ellipse class="st3" cx="225.7" cy="376.4" rx="15.2" ry="16.4"/>
	<rect x="315.3" y="431.8" class="st2" width="6.6" height="35.9"/>
	<ellipse class="st3" cx="318.6" cy="427.1" rx="15.2" ry="16.4"/>
	<rect x="207.2" y="508.4" class="st2" width="6.6" height="12.5"/>
	<ellipse class="st3" cx="210.5" cy="501.2" rx="11.7" ry="12.6"/>
	<rect x="200.6" y="308.8" class="st5" width="5.4" height="5.8"/>
	<path class="st2" d="M201.7,316.4h3.2c1.4,0,2.6,1.2,2.6,2.8l0,0V337l0,0h-8.3l0,0v-17.8C199.1,317.7,200.3,316.4,201.7,316.4
		L201.7,316.4z"/>
	<rect x="205.1" y="227.2" class="st3" width="12.4" height="13.3"/>
	<rect x="205.1" y="250.5" class="st2" width="12.4" height="13.3"/>
	<rect x="226.7" y="250.5" class="st13" width="12.4" height="13.3"/>
	<rect x="205.1" y="273.4" class="st6" width="12.4" height="13.3"/>
	<g>
		<g>
			<defs>
				<rect id="SVGID_00000093153243657528718050000017558757353793184925_" x="205.1" y="273.4" width="12.4" height="13.3"/>
			</defs>
			<clipPath id="SVGID_00000071519765874682678720000005225615775325105291_">
				<use xlink:href="#SVGID_00000093153243657528718050000017558757353793184925_"  style="overflow:visible;"/>
			</clipPath>
			<g style="clip-path:url(#SVGID_00000071519765874682678720000005225615775325105291_);">
				<rect x="207.1" y="276.9" class="st5" width="3.5" height="3.8"/>
				<path class="st15" d="M207.8,281.9h2.1c0.9,0,1.7,0.8,1.7,1.8l0,0v11.6l0,0h-5.5l0,0v-11.6C206.1,282.7,206.8,281.9,207.8,281.9
					L207.8,281.9z"/>
				<rect x="211.9" y="274.9" class="st5" width="3.5" height="3.8"/>
				<path class="st15" d="M212.7,279.9h2.1c0.9,0,1.7,0.8,1.7,1.8l0,0v11.6l0,0H211l0,0v-11.6C210.9,280.7,211.7,279.9,212.7,279.9
					C212.6,279.9,212.6,279.9,212.7,279.9z"/>
			</g>
		</g>
	</g>
	<rect x="226.7" y="227.2" class="st6" width="12.4" height="13.3"/>
	<g>
		<g>
			<defs>
				<rect id="SVGID_00000040555467299479554880000009096418090479058592_" x="226.7" y="227.2" width="12.4" height="13.3"/>
			</defs>
			<clipPath id="SVGID_00000179605211698247120370000009013094096231292078_">
				<use xlink:href="#SVGID_00000040555467299479554880000009096418090479058592_"  style="overflow:visible;"/>
			</clipPath>
			<g style="clip-path:url(#SVGID_00000179605211698247120370000009013094096231292078_);">
				<rect x="230.9" y="237.3" class="st8" width="3.9" height="4.2"/>
				<path class="st0" d="M237.1,234c0,2.5-1.9,4.6-4.2,4.6c-2.3,0-4.2-2-4.2-4.6H237.1z"/>
				<ellipse class="st8" cx="232.8" cy="231.2" rx="1.7" ry="1.9"/>
			</g>
		</g>
	</g>
	<polygon class="st4" points="355.7,375.8 295.5,375.8 295.5,305.6 325,275.4 355.7,305.6 	"/>
	<rect x="316" y="353" class="st2" width="18.7" height="22.6"/>
	<rect x="211.4" y="301.6" class="st6" width="21.5" height="27.1"/>
	<rect x="308.6" y="305.4" class="st0" width="12.4" height="13.3"/>
	<rect x="265.9" y="469.9" class="st4" width="12.4" height="13.3"/>
	<path class="st0" d="M353.5,380.5c0,4.5-3.4,8.1-7.5,8.1s-7.5-3.6-7.5-8.1H353.5z"/>
	<path class="st0" d="M353.5,372.5c0,4.5-3.4,8.1-7.5,8.1s-7.5-3.6-7.5-8.1l0,0H353.5z"/>
	<polygon class="st8" points="341.4,364.6 345.8,372.6 350.3,364.6 	"/>
	<path class="st0" d="M372.5,388.6c0,4.5-3.4,8.1-7.5,8.1s-7.5-3.6-7.5-8.1H372.5z"/>
	<path class="st0" d="M372.5,380.6c0,4.5-3.4,8.1-7.5,8.1s-7.5-3.6-7.5-8.1l0,0H372.5z"/>
	<polygon class="st8" points="360.4,372.8 364.8,380.6 369.3,372.8 	"/>
	<path class="st3" d="M308.9,527.7L308.9,527.7c-0.2-3.9-3.2-6.9-6.7-6.7c-3.3,0.2-6,3-6.1,6.6v0.1l0,0v6.8h13L308.9,527.7
		L308.9,527.7z"/>
	<rect x="299" y="511.1" class="st8" width="6.8" height="7.3"/>
	<rect x="218.7" y="326.2" class="st8" width="6.9" height="7.4"/>
	<path class="st0" d="M229.6,317.1c0.2,4.4-3,8.2-7.2,8.4c-4.1,0.2-7.6-3.3-7.8-7.7c0-0.2,0-0.5,0-0.7L229.6,317.1L229.6,317.1z"/>
	<ellipse class="st8" cx="222.1" cy="313.5" rx="2.5" ry="2.7"/>
	<ellipse class="st6" cx="261.8" cy="506.6" rx="3.2" ry="3.5"/>
	<polygon class="st2" points="253.5,511.7 261.8,526.4 270.1,511.7 	"/>
	<rect x="244.4" y="469.9" class="st6" width="12.4" height="13.3"/>
	<g>
		<g>
			<defs>
				<rect id="SVGID_00000169539430042763709920000004288632127424918446_" x="244.4" y="469.9" width="12.4" height="13.3"/>
			</defs>
			<clipPath id="SVGID_00000035493559434145211730000009160851244730114438_">
				<use xlink:href="#SVGID_00000169539430042763709920000004288632127424918446_"  style="overflow:visible;"/>
			</clipPath>
			<g style="clip-path:url(#SVGID_00000035493559434145211730000009160851244730114438_);">
				<path class="st3" d="M254.5,481.8L254.5,481.8c0.1-2.4-1.5-4.4-3.7-4.5s-4,1.6-4.1,3.9c0,0.2,0,0.3,0,0.5v0.1l0,0v4.1h7.8V481.8
					z"/>
				<rect x="248.5" y="471.7" class="st8" width="4.1" height="4.5"/>
			</g>
		</g>
	</g>
	<rect x="265.9" y="447" class="st3" width="12.4" height="13.3"/>
	<g>
		<g>
			<defs>
				<rect id="SVGID_00000178186975241886131780000015328550555062626437_" x="265.9" y="447" width="12.4" height="13.3"/>
			</defs>
			<clipPath id="SVGID_00000127742695841461208710000011111501998887460010_">
				<use xlink:href="#SVGID_00000178186975241886131780000015328550555062626437_"  style="overflow:visible;"/>
			</clipPath>
			<g style="clip-path:url(#SVGID_00000127742695841461208710000011111501998887460010_);">
				<ellipse class="st6" cx="272.1" cy="451.1" rx="2" ry="2.1"/>
				<polygon class="st2" points="267.1,454.2 272.1,463.1 277.2,454.2 				"/>
			</g>
		</g>
	</g>
	<rect x="288" y="329.5" class="st6" width="12.4" height="13.3"/>
	<g>
		<g>
			<defs>
				<rect id="SVGID_00000139256719732068165430000004304733871033899393_" x="308.6" y="329.6" width="12.4" height="13.3"/>
			</defs>
			<clipPath id="SVGID_00000082351411695609304220000005508751766407041709_">
				<use xlink:href="#SVGID_00000139256719732068165430000004304733871033899393_"  style="overflow:visible;"/>
			</clipPath>
			<g style="clip-path:url(#SVGID_00000082351411695609304220000005508751766407041709_);">
				<path class="st0" d="M319.8,338.6c0,3-2.2,5.3-5,5.3c-2.7,0-5-2.4-5-5.3H319.8z"/>
				<polygon class="st8" points="311.7,333.4 314.7,338.6 317.7,333.4 				"/>
			</g>
		</g>
	</g>
	<ellipse class="st6" cx="306.2" cy="362.4" rx="4.3" ry="4.6"/>
	<rect x="300.1" y="368.5" class="st20" width="12.3" height="13.2"/>
	<rect x="309.7" y="329.5" class="st5" width="12.4" height="13.3"/>
	<g>
		<g>
			<defs>
				<rect id="SVGID_00000144310175521747937830000016955672791979097791_" x="309.7" y="329.5" width="12.4" height="13.3"/>
			</defs>
			<clipPath id="SVGID_00000173151452261515084180000006963547553508915122_">
				<use xlink:href="#SVGID_00000144310175521747937830000016955672791979097791_"  style="overflow:visible;"/>
			</clipPath>
			<g style="clip-path:url(#SVGID_00000173151452261515084180000006963547553508915122_);">
				<ellipse class="st6" cx="315.9" cy="334" rx="2.8" ry="3"/>
				<rect x="311.9" y="338.1" class="st20" width="8" height="8.6"/>
			</g>
		</g>
	</g>
</g>
</svg>
