<?xml version="1.0" encoding="utf-8"?>
<!-- Generator: Adobe Illustrator 25.4.0, SVG Export Plug-In . SVG Version: 6.00 Build 0)  -->
<svg version="1.1" id="Layer_1" xmlns="http://www.w3.org/2000/svg" xmlns:xlink="http://www.w3.org/1999/xlink" x="0px" y="0px"
	 viewBox="0 0 559.4 566" style="enable-background:new 0 0 559.4 566;" xml:space="preserve">
<style type="text/css">
	.st0{fill:#FF595A;}
	.st1{fill:#A7DED5;}
	.st2{fill:#D9B7E2;}
	.st3{fill:#007F6E;}
	.st4{fill:#3D7CC9;}
	.st5{fill:#FFC629;}
	.st6{fill:#FFFFFF;}
	.st7{clip-path:url(#SVGID_00000111885400683121236370000002669511617902240411_);}
	.st8{fill:#93DACF;}
	.st9{fill:#FF8672;}
	.st10{fill:#221F1F;}
	.st11{clip-path:url(#SVGID_00000117663729799687130700000013567250942249141666_);}
	.st12{clip-path:url(#SVGID_00000012449245885911152880000009670890199222045364_);}
	.st13{fill:#BFE8E1;}
	.st14{clip-path:url(#SVGID_00000097489490428342051240000008513831005501682061_);}
	.st15{fill:#E7BEDB;}
	.st16{clip-path:url(#SVGID_00000059297417953489588060000015279905261584031393_);}
	.st17{clip-path:url(#SVGID_00000167394876657075659280000002109312382685417866_);}
	.st18{clip-path:url(#SVGID_00000040568132804787791970000000029935870403814024_);}
	.st19{clip-path:url(#SVGID_00000017507596030968076850000017677412465493623173_);}
	.st20{fill:#66C9BA;}
	.st21{clip-path:url(#SVGID_00000024713103898610495470000015169667631371152040_);}
</style>
<g id="Layer_3">
	<path class="st0" d="M498,372.5v110h-60.4v-110c0-17.5,13.2-31.7,29.5-31.7h1.4C484.8,340.7,498,354.9,498,372.5z"/>
	<path class="st1" d="M416.2,394.6c-33.3,0-60.2,29-60.2,64.8v86.4h60.2V394.6z"/>
	<path class="st2" d="M209.1,484.4v36.3h60.3V419.6C236.1,419.6,209.1,448.6,209.1,484.4C209.1,484.3,209.1,484.4,209.1,484.4z"/>
	<rect x="391.2" y="488.7" class="st3" width="12.4" height="13.3"/>
	<path class="st3" d="M397.5,528.4c0-0.1,0-0.2,0-0.2c0-6.9-5.2-12.4-11.5-12.4c-6.4,0-11.5,5.6-11.5,12.4v0.2l0,0v17.4h23.1v-17.4
		H397.5z"/>
	<ellipse class="st4" cx="416.2" cy="537.3" rx="3.9" ry="4.2"/>
	<path class="st5" d="M411.1,544.9c2.8-2.9,7.3-2.9,10.1,0c2.5,2.6,2.9,6.7,1.1,9.8c-0.7,1.1-1.6,2.1-2.7,2.7
		c-1,0.6-2.2,0.9-3.4,0.9c-1.2,0-2.3-0.3-3.4-0.9c-1.1-0.7-2.1-1.6-2.7-2.7c-0.8-1.2-1.1-2.6-1.1-4.1
		C408.9,548.5,409.7,546.4,411.1,544.9z"/>
	<ellipse class="st6" cx="416.2" cy="550.5" rx="2.6" ry="2.8"/>
	<polygon class="st4" points="376.7,553.6 386.2,536.9 395.7,553.6 	"/>
	<rect x="382.6" y="529.4" class="st0" width="7.3" height="7.8"/>
	<polygon class="st4" points="359.4,545.8 368.9,529.1 378.4,545.8 	"/>
	<rect x="365.3" y="521.6" class="st0" width="7.3" height="7.8"/>
	<rect x="391.2" y="442.5" class="st0" width="12.4" height="13.3"/>
	<g>
		<g>
			<defs>
				<rect id="SVGID_1_" x="391.2" y="442.5" width="12.4" height="13.3"/>
			</defs>
			<clipPath id="SVGID_00000036220300980575361060000005005345954519364001_">
				<use xlink:href="#SVGID_1_"  style="overflow:visible;"/>
			</clipPath>
			<g style="clip-path:url(#SVGID_00000036220300980575361060000005005345954519364001_);">
				<ellipse class="st8" cx="397.4" cy="447.1" rx="2.3" ry="2.4"/>
				<path class="st5" d="M394.4,451.5c1.6-1.7,4.2-1.7,5.9,0c0.8,0.8,1.3,2,1.3,3.2c0,0.9-0.2,1.7-0.7,2.4c-0.4,0.7-1,1.2-1.6,1.6
					c-1.9,1-4.3,0.3-5.5-1.6c-0.4-0.7-0.7-1.5-0.7-2.4C393.2,453.6,393.6,452.4,394.4,451.5z"/>
				<ellipse class="st9" cx="397.4" cy="454.8" rx="1.5" ry="1.6"/>
			</g>
		</g>
	</g>
	<rect x="369.5" y="465.8" class="st10" width="12.4" height="13.3"/>
	<g>
		<g>
			<defs>
				<rect id="SVGID_00000075149416188606504760000001707997524457697932_" x="369.5" y="465.8" width="12.4" height="13.3"/>
			</defs>
			<clipPath id="SVGID_00000172408660142457426600000007038942058183313567_">
				<use xlink:href="#SVGID_00000075149416188606504760000001707997524457697932_"  style="overflow:visible;"/>
			</clipPath>
			<g style="clip-path:url(#SVGID_00000172408660142457426600000007038942058183313567_);">
				<polygon class="st8" points="370,482.9 376,472.3 381.9,482.9 				"/>
				<rect x="373.7" y="467.6" class="st0" width="4.6" height="5"/>
			</g>
		</g>
	</g>
	<rect x="391.2" y="465.8" class="st6" width="12.4" height="13.3"/>
	<g>
		<g>
			<defs>
				<rect id="SVGID_00000114034979978511386480000015812900164828696727_" x="391.2" y="465.8" width="12.4" height="13.3"/>
			</defs>
			<clipPath id="SVGID_00000021804785096329638080000017264252909753061809_">
				<use xlink:href="#SVGID_00000114034979978511386480000015812900164828696727_"  style="overflow:visible;"/>
			</clipPath>
			<g style="clip-path:url(#SVGID_00000021804785096329638080000017264252909753061809_);">
				<ellipse class="st8" cx="397.4" cy="470.2" rx="2.4" ry="2.5"/>
				<path class="st5" d="M394.3,474.7c1.7-1.8,4.4-1.8,6.1,0c0.9,0.9,1.4,2.1,1.4,3.4c0,1.7-0.9,3.4-2.4,4.1c-1.3,0.7-2.8,0.7-4.1,0
					c-0.7-0.4-1.2-0.9-1.7-1.6c-0.4-0.7-0.7-1.6-0.7-2.5C393,476.9,393.4,475.6,394.3,474.7z"/>
				<ellipse class="st6" cx="397.4" cy="478.1" rx="1.6" ry="1.7"/>
			</g>
		</g>
	</g>
	<path class="st0" d="M252.2,508.6c0-0.1,0-0.2,0-0.2c-0.2-6.9-5.6-12.2-11.9-12c-6.1,0.2-10.9,5.5-11.1,12c0,0.1,0,0.1,0,0.2l0,0
		v12.2h23.1v-12.2H252.2z"/>
	<polygon class="st3" points="322.3,545.5 331.8,509.7 341.3,545.5 	"/>
	<polygon class="st3" points="245.7,374.8 255.2,339 264.6,374.8 	"/>
	<polygon class="st3" points="236.4,387.4 243.3,361.4 250.2,387.4 	"/>
	<polygon class="st3" points="308.9,545.5 315.8,519.5 322.7,545.5 	"/>
	<rect x="520.5" y="446.5" class="st2" width="6.6" height="35.9"/>
	<ellipse class="st3" cx="523.8" cy="435.9" rx="15.2" ry="16.4"/>
	<rect x="294.7" y="431.6" class="st2" width="6.6" height="35.9"/>
	<ellipse class="st3" cx="298" cy="426.9" rx="15.2" ry="16.4"/>
	<rect x="186.6" y="508.2" class="st2" width="6.6" height="12.5"/>
	<ellipse class="st3" cx="189.9" cy="501" rx="11.7" ry="12.6"/>
	<rect x="446.3" y="462.7" class="st5" width="5.4" height="5.8"/>
	<path class="st2" d="M447.4,470.3h3.2c1.4,0,2.6,1.2,2.6,2.8l0,0v17.8l0,0h-8.3l0,0v-17.8C444.8,471.6,446,470.3,447.4,470.3
		L447.4,470.3z"/>
	<rect x="450.8" y="381.1" class="st3" width="12.4" height="13.3"/>
	<rect x="450.8" y="404.4" class="st2" width="12.4" height="13.3"/>
	<rect x="472.4" y="404.4" class="st13" width="12.4" height="13.3"/>
	<rect x="450.8" y="427.3" class="st6" width="12.4" height="13.3"/>
	<g>
		<g>
			<defs>
				<rect id="SVGID_00000008126117941968161390000000944862778893821330_" x="450.8" y="427.3" width="12.4" height="13.3"/>
			</defs>
			<clipPath id="SVGID_00000124146032888635935040000008046480404271564463_">
				<use xlink:href="#SVGID_00000008126117941968161390000000944862778893821330_"  style="overflow:visible;"/>
			</clipPath>
			<g style="clip-path:url(#SVGID_00000124146032888635935040000008046480404271564463_);">
				<rect x="452.8" y="430.8" class="st5" width="3.5" height="3.8"/>
				<path class="st15" d="M453.5,435.8h2.1c0.9,0,1.7,0.8,1.7,1.8l0,0v11.6l0,0h-5.5l0,0v-11.6C451.8,436.6,452.5,435.8,453.5,435.8
					L453.5,435.8z"/>
				<rect x="457.6" y="428.8" class="st5" width="3.5" height="3.8"/>
				<path class="st15" d="M458.4,433.8h2.1c0.9,0,1.7,0.8,1.7,1.8l0,0v11.6l0,0h-5.5l0,0v-11.6C456.6,434.6,457.4,433.8,458.4,433.8
					C458.3,433.8,458.3,433.8,458.4,433.8z"/>
			</g>
		</g>
	</g>
	<rect x="472.4" y="381.1" class="st6" width="12.4" height="13.3"/>
	<g>
		<g>
			<defs>
				<rect id="SVGID_00000081636494659648350640000017215800204236864406_" x="472.4" y="381.1" width="12.4" height="13.3"/>
			</defs>
			<clipPath id="SVGID_00000114035320617153267000000011218313582434709925_">
				<use xlink:href="#SVGID_00000081636494659648350640000017215800204236864406_"  style="overflow:visible;"/>
			</clipPath>
			<g style="clip-path:url(#SVGID_00000114035320617153267000000011218313582434709925_);">
				<rect x="476.6" y="391.2" class="st8" width="3.9" height="4.2"/>
				<path class="st0" d="M482.8,387.9c0,2.5-1.9,4.6-4.2,4.6c-2.3,0-4.2-2-4.2-4.6H482.8z"/>
				<ellipse class="st8" cx="478.5" cy="385.1" rx="1.7" ry="1.9"/>
			</g>
		</g>
	</g>
	<polygon class="st4" points="335.1,375.6 274.9,375.6 274.9,305.5 304.4,275.3 335.1,305.5 	"/>
	<rect x="295.4" y="352.9" class="st2" width="18.7" height="22.6"/>
	<rect x="457.1" y="455.5" class="st6" width="21.5" height="27.1"/>
	<rect x="288" y="305.2" class="st0" width="12.4" height="13.3"/>
	<rect x="245.3" y="469.7" class="st4" width="12.4" height="13.3"/>
	<path class="st0" d="M332.9,380.4c0,4.5-3.4,8.1-7.5,8.1s-7.5-3.6-7.5-8.1H332.9z"/>
	<path class="st0" d="M332.9,372.4c0,4.5-3.4,8.1-7.5,8.1s-7.5-3.6-7.5-8.1l0,0H332.9z"/>
	<polygon class="st8" points="320.8,364.5 325.2,372.5 329.7,364.5 	"/>
	<path class="st0" d="M351.9,388.5c0,4.5-3.4,8.1-7.5,8.1s-7.5-3.6-7.5-8.1H351.9z"/>
	<path class="st0" d="M351.9,380.5c0,4.5-3.4,8.1-7.5,8.1s-7.5-3.6-7.5-8.1l0,0H351.9z"/>
	<polygon class="st8" points="339.8,372.6 344.2,380.5 348.7,372.6 	"/>
	<path class="st3" d="M288.3,527.5L288.3,527.5c-0.2-3.9-3.2-6.9-6.7-6.7c-3.3,0.2-6,3-6.1,6.6v0.1l0,0v6.8h13L288.3,527.5
		L288.3,527.5z"/>
	<rect x="278.4" y="510.9" class="st8" width="6.8" height="7.3"/>
	<rect x="464.4" y="480.1" class="st8" width="6.9" height="7.4"/>
	<path class="st0" d="M475.3,471c0.2,4.4-3,8.2-7.2,8.4c-4.1,0.2-7.6-3.3-7.8-7.7c0-0.2,0-0.5,0-0.7L475.3,471L475.3,471z"/>
	<ellipse class="st8" cx="467.8" cy="467.4" rx="2.5" ry="2.7"/>
	<ellipse class="st6" cx="241.2" cy="506.4" rx="3.2" ry="3.5"/>
	<polygon class="st2" points="232.9,511.5 241.2,526.2 249.5,511.5 	"/>
	<rect x="223.8" y="469.7" class="st6" width="12.4" height="13.3"/>
	<g>
		<g>
			<defs>
				<rect id="SVGID_00000167398076351980868340000016462576251366067610_" x="223.8" y="469.7" width="12.4" height="13.3"/>
			</defs>
			<clipPath id="SVGID_00000070815300944195240010000015134950510777038471_">
				<use xlink:href="#SVGID_00000167398076351980868340000016462576251366067610_"  style="overflow:visible;"/>
			</clipPath>
			<g style="clip-path:url(#SVGID_00000070815300944195240010000015134950510777038471_);">
				<path class="st3" d="M233.9,481.6L233.9,481.6c0.1-2.4-1.5-4.4-3.7-4.5c-2.2-0.1-4,1.6-4.1,3.9c0,0.2,0,0.3,0,0.5v0.1l0,0v4.1
					h7.8V481.6z"/>
				<rect x="227.9" y="471.5" class="st8" width="4.1" height="4.5"/>
			</g>
		</g>
	</g>
	<rect x="245.3" y="446.8" class="st3" width="12.4" height="13.3"/>
	<g>
		<g>
			<defs>
				<rect id="SVGID_00000083810960378882245940000012356764509110798982_" x="245.3" y="446.8" width="12.4" height="13.3"/>
			</defs>
			<clipPath id="SVGID_00000060008975745928502840000002061353925463415951_">
				<use xlink:href="#SVGID_00000083810960378882245940000012356764509110798982_"  style="overflow:visible;"/>
			</clipPath>
			<g style="clip-path:url(#SVGID_00000060008975745928502840000002061353925463415951_);">
				<ellipse class="st6" cx="251.5" cy="450.9" rx="2" ry="2.1"/>
				<polygon class="st2" points="246.5,454 251.5,462.9 256.6,454 				"/>
			</g>
		</g>
	</g>
	<rect x="288" y="329.5" class="st6" width="12.4" height="13.3"/>
	<g>
		<g>
			<defs>
				<rect id="SVGID_00000076573260138738609830000002487546129698222743_" x="288" y="329.5" width="12.4" height="13.3"/>
			</defs>
			<clipPath id="SVGID_00000073710528338014500310000002931751500052409498_">
				<use xlink:href="#SVGID_00000076573260138738609830000002487546129698222743_"  style="overflow:visible;"/>
			</clipPath>
			<g style="clip-path:url(#SVGID_00000073710528338014500310000002931751500052409498_);">
				<path class="st0" d="M299.2,338.5c0,3-2.2,5.3-5,5.3c-2.7,0-5-2.4-5-5.3H299.2z"/>
				<polygon class="st8" points="291.1,333.2 294.1,338.5 297.1,333.2 				"/>
			</g>
		</g>
	</g>
	<ellipse class="st6" cx="285.6" cy="362.2" rx="4.3" ry="4.6"/>
	<rect x="279.5" y="368.4" class="st20" width="12.3" height="13.2"/>
	<rect x="309.7" y="329.5" class="st5" width="12.4" height="13.3"/>
	<g>
		<g>
			<defs>
				<rect id="SVGID_00000052795381578347947290000003043914744699707818_" x="309.7" y="329.5" width="12.4" height="13.3"/>
			</defs>
			<clipPath id="SVGID_00000000183504546179511350000014952168427739189944_">
				<use xlink:href="#SVGID_00000052795381578347947290000003043914744699707818_"  style="overflow:visible;"/>
			</clipPath>
			<g style="clip-path:url(#SVGID_00000000183504546179511350000014952168427739189944_);">
				<ellipse class="st6" cx="315.9" cy="334" rx="2.8" ry="3"/>
				<rect x="311.9" y="338.1" class="st20" width="8" height="8.6"/>
			</g>
		</g>
	</g>
</g>
</svg>
