<?xml version="1.0" encoding="utf-8"?>
<!-- Generator: Adobe Illustrator 25.4.0, SVG Export Plug-In . SVG Version: 6.00 Build 0)  -->
<svg version="1.1" id="Layer_1" xmlns="http://www.w3.org/2000/svg" xmlns:xlink="http://www.w3.org/1999/xlink" x="0px" y="0px"
	 viewBox="0 0 559.4 566" style="enable-background:new 0 0 559.4 566;" xml:space="preserve">
<style type="text/css">
	.st0{fill:#FF595A;}
	.st1{fill:#93DACF;}
	.st2{fill:#D9B7E2;}
	.st3{fill:#007F6E;}
	.st4{fill:#221F20;}
	.st5{fill:#FFFFFF;}
	.st6{clip-path:url(#SVGID_00000137844444847497244580000012408818609341463955_);}
	.st7{fill:#D8EEEB;}
	.st8{fill:#3D7CC9;}
	.st9{fill:#FFC629;}
</style>
<path class="st0" d="M392.9,328.1v73.4h-43.3v-73.4c0-11.7,9.5-21.1,21.1-21.1h1C383.4,307,392.9,316.5,392.9,328.1"/>
<path class="st1" d="M327.7,368.9c-23.9,0-43.2,19.3-43.2,43.2v57.6h43.2V368.9z"/>
<path class="st2" d="M105.8,426.6v24.2h43.2v-67.5C125.2,383.4,105.9,402.7,105.8,426.6"/>
<rect x="309.8" y="431.6" class="st3" width="8.9" height="8.9"/>
<path class="st3" d="M314.3,458.1c0-0.1,0-0.1,0-0.2c-0.2-4.6-4-8.1-8.6-8c-4.3,0.2-7.8,3.6-8,8v0.2l0,0v11.6h16.5V458.1z"/>
<rect x="309.8" y="400.8" class="st0" width="8.9" height="8.9"/>
<rect x="294.2" y="416.4" class="st4" width="8.9" height="8.9"/>
<rect x="309.8" y="416.4" class="st5" width="8.9" height="8.9"/>
<g>
	<defs>
		<rect id="SVGID_1_" x="309.8" y="416.4" width="8.9" height="8.9"/>
	</defs>
	<clipPath id="SVGID_00000136375833182826549940000003104137179635044996_">
		<use xlink:href="#SVGID_1_"  style="overflow:visible;"/>
	</clipPath>
	<g style="clip-path:url(#SVGID_00000136375833182826549940000003104137179635044996_);">
		<path class="st5" d="M315.3,424.6c0,0.6-0.5,1.1-1.1,1.1c-0.6,0-1.1-0.5-1.1-1.1c0-0.6,0.5-1.1,1.1-1.1c0,0,0,0,0,0
			C314.8,423.5,315.3,424,315.3,424.6"/>
	</g>
</g>
<path class="st0" d="M136.8,442.7c0,0,0-0.1,0-0.1c-0.2-4.6-4-8.1-8.6-8c-4.3,0.2-7.8,3.6-8,8v0.1l0,0v8.1h16.6V442.7z"/>
<polygon class="st3" points="263.3,469.5 270.1,445.7 276.9,469.5 "/>
<polygon class="st3" points="183.6,334.9 190.4,311 197.2,334.9 "/>
<polygon class="st3" points="176.9,343.3 181.9,325.9 186.8,343.3 "/>
<polygon class="st3" points="253.7,469.5 258.6,452.2 263.6,469.5 "/>
<rect x="409" y="377.6" class="st2" width="4.7" height="23.9"/>
<path class="st3" d="M422.3,370.5c0,6-4.9,10.9-10.9,10.9c-6,0-10.9-4.9-10.9-10.9c0-6,4.9-10.9,10.9-10.9l0,0
	C417.4,359.6,422.3,364.4,422.3,370.5C422.3,370.5,422.3,370.5,422.3,370.5"/>
<rect x="166.3" y="396.2" class="st2" width="4.7" height="23.9"/>
<path class="st3" d="M179.6,393.1c0,6-4.9,10.9-10.9,11c-6,0-10.9-4.9-11-10.9c0-6,4.9-10.9,10.9-11c0,0,0,0,0,0
	C174.7,382.2,179.6,387.1,179.6,393.1C179.6,393.1,179.6,393.1,179.6,393.1"/>
<rect x="89.7" y="442.5" class="st2" width="4.7" height="8.3"/>
<path class="st3" d="M100.4,437.7c0,4.6-3.7,8.4-8.4,8.4s-8.4-3.7-8.4-8.4c0-4.6,3.7-8.4,8.4-8.4c0,0,0,0,0,0
	C96.7,429.3,100.4,433.1,100.4,437.7"/>
<rect x="359" y="333.9" class="st3" width="8.9" height="8.9"/>
<rect x="359" y="349.5" class="st2" width="8.9" height="8.9"/>
<rect x="374.6" y="349.5" class="st7" width="8.9" height="8.9"/>
<rect x="359" y="364.7" class="st5" width="8.9" height="8.9"/>
<rect x="374.6" y="333.9" class="st5" width="8.9" height="8.9"/>
<polygon class="st8" points="247.7,335.4 204.5,335.4 204.5,288.6 225.7,268.5 247.7,288.6 "/>
<rect x="219.2" y="320.3" class="st2" width="13.4" height="15.1"/>
<rect x="363.6" y="383.6" class="st5" width="15.4" height="18.1"/>
<rect x="213.9" y="289.4" class="st0" width="8.9" height="8.9"/>
<rect x="131.8" y="416.8" class="st8" width="8.9" height="8.9"/>
<rect x="116.3" y="416.8" class="st5" width="8.9" height="8.9"/>
<rect x="131.8" y="401.6" class="st3" width="8.9" height="8.9"/>
<rect x="213.9" y="304.7" class="st5" width="8.9" height="8.9"/>
<rect x="229.5" y="304.7" class="st9" width="8.9" height="8.9"/>
</svg>
