<?xml version="1.0" encoding="utf-8"?>
<!-- Generator: Adobe Illustrator 25.4.0, SVG Export Plug-In . SVG Version: 6.00 Build 0)  -->
<svg version="1.1" id="Layer_1" xmlns="http://www.w3.org/2000/svg" xmlns:xlink="http://www.w3.org/1999/xlink" x="0px" y="0px"
	 viewBox="0 0 559.4 566" style="enable-background:new 0 0 559.4 566;" xml:space="preserve">
<style type="text/css">
	.st0{fill:#D9B7E2;}
	.st1{fill:#FF595A;}
	.st2{fill:#007F6E;}
	.st3{fill:#3D7CC9;}
	.st4{fill:#FFFFFF;}
	.st5{fill:#FFC629;}
</style>
<path class="st0" d="M51.1,507.4V566h99.5V402.9C95.7,402.9,51.1,449.7,51.1,507.4"/>
<path class="st1" d="M122.3,546.4c0-0.1,0-0.2,0-0.4c-0.4-11.1-9.2-19.7-19.7-19.3c-10,0.4-18.1,8.8-18.4,19.3v0.4l0,0V566h38.1
	V546.4z"/>
<polygon class="st2" points="230.1,285.5 245.8,227.8 261.5,285.5 "/>
<polygon class="st2" points="214.9,305.8 226.3,263.8 237.7,305.8 "/>
<rect x="190.3" y="433.9" class="st0" width="10.9" height="57.9"/>
<path class="st2" d="M220.9,426.4c0,14.6-11.2,26.5-25.2,26.5c-13.9,0-25.2-11.8-25.3-26.4c0-14.6,11.2-26.5,25.2-26.5
	c0,0,0,0,0.1,0C209.6,399.9,220.9,411.8,220.9,426.4C220.9,426.3,220.9,426.4,220.9,426.4"/>
<rect x="13.9" y="545.9" class="st0" width="10.9" height="20.1"/>
<path class="st2" d="M38.7,534.3c0,11.2-8.6,20.3-19.3,20.3S0,545.5,0,534.3C0,523.1,8.6,514,19.3,514c0,0,0,0,0,0
	C30,514,38.6,523.1,38.7,534.3"/>
<polygon class="st3" points="378,286.8 278.5,286.8 278.5,173.6 327.2,125 378,173.6 "/>
<rect x="312.3" y="250.3" class="st0" width="30.9" height="36.4"/>
<rect x="300.1" y="175.5" class="st1" width="20.5" height="21.5"/>
<rect x="110.9" y="483.7" class="st3" width="20.5" height="21.5"/>
<rect x="75.3" y="483.7" class="st4" width="20.5" height="21.5"/>
<rect x="110.9" y="446.8" class="st2" width="20.5" height="21.5"/>
<rect x="300.1" y="212.5" class="st4" width="20.5" height="21.5"/>
<rect x="336" y="212.5" class="st5" width="20.5" height="21.5"/>
</svg>
