<?xml version="1.0" encoding="utf-8"?>
<!-- Generator: Adobe Illustrator 25.4.0, SVG Export Plug-In . SVG Version: 6.00 Build 0)  -->
<svg version="1.1" id="Layer_1" xmlns="http://www.w3.org/2000/svg" xmlns:xlink="http://www.w3.org/1999/xlink" x="0px" y="0px"
	 viewBox="0 0 559.4 566" style="enable-background:new 0 0 559.4 566;" xml:space="preserve">
<style type="text/css">
	.st0{fill:#D9B7E2;}
	.st1{fill:#FF595A;}
	.st2{clip-path:url(#SVGID_00000175282762257915409120000002272035467121266613_);}
	.st3{fill:#93DACF;}
	.st4{fill:#FFC629;}
	.st5{fill:#FF8672;}
	.st6{fill:#007F6E;}
	.st7{clip-path:url(#SVGID_00000032650178730879525510000009974574332480062891_);}
	.st8{fill:#3D7CC9;}
	.st9{fill:#FFFFFF;}
	.st10{clip-path:url(#SVGID_00000032638019552707274180000006105905570431196056_);}
	.st11{clip-path:url(#SVGID_00000055669043316642214360000013894619339569538201_);}
	.st12{clip-path:url(#SVGID_00000010287143096555553650000014940843940615962802_);}
</style>
<g id="Layer_3">
	<path class="st0" d="M133.2,363.5L133.2,363.5L133.2,363.5V468l0,0H88.4l0,0v-59.7C88.4,383.6,108.5,363.5,133.2,363.5
		C133.2,363.5,133.2,363.5,133.2,363.5z"/>
	<rect x="114.6" y="398.3" class="st1" width="9.1" height="9.1"/>
	<g>
		<defs>
			<rect id="SVGID_1_" x="114.6" y="398.3" width="9.1" height="9.1"/>
		</defs>
		<clipPath id="SVGID_00000150791911502348915190000016994474857413205692_">
			<use xlink:href="#SVGID_1_"  style="overflow:visible;"/>
		</clipPath>
		<g style="clip-path:url(#SVGID_00000150791911502348915190000016994474857413205692_);">
			<circle class="st3" cx="119.2" cy="401.4" r="1.7"/>
			<path class="st4" d="M117,404.4c0.6-0.6,1.4-0.9,2.2-0.9c0.8,0,1.6,0.3,2.1,0.9c1,1,1.2,2.6,0.4,3.9c-0.3,0.5-0.7,0.8-1.2,1.1
				c-0.4,0.2-0.9,0.3-1.4,0.3c-0.5,0-1-0.1-1.4-0.4c-0.5-0.3-0.9-0.6-1.2-1.1C115.8,407,116,405.4,117,404.4L117,404.4z"/>
			<circle class="st5" cx="119.2" cy="406.6" r="1.1"/>
		</g>
	</g>
	<rect x="98.5" y="414.4" class="st6" width="9.1" height="9.1"/>
	<g>
		<defs>
			<rect id="SVGID_00000120524651077108924000000002767681390666796935_" x="98.5" y="414.4" width="9.1" height="9.1"/>
		</defs>
		<clipPath id="SVGID_00000063603869836280910120000012237888972566557361_">
			<use xlink:href="#SVGID_00000120524651077108924000000002767681390666796935_"  style="overflow:visible;"/>
		</clipPath>
		<g style="clip-path:url(#SVGID_00000063603869836280910120000012237888972566557361_);">
			<polygon class="st3" points="98.9,426 103.2,418.8 107.6,426 			"/>
			<rect x="101.6" y="415.6" class="st1" width="3.4" height="3.4"/>
		</g>
	</g>
	<rect x="98.5" y="430.2" class="st4" width="9.2" height="9.2"/>
	<rect x="114.6" y="430.2" class="st8" width="9.2" height="9.2"/>
	<path class="st6" d="M119.3,456c0-0.1,0-0.1,0-0.2c-0.2-4.7-4.1-8.4-8.9-8.3c-4.5,0.2-8.1,3.8-8.3,8.3c0,0,0,0.1,0,0.2l0,0v12h17.2
		V456z"/>
	<polygon class="st6" points="60.2,468.9 67.3,444.2 74.3,468.9 	"/>
	<polygon class="st6" points="51.7,460.8 58.7,436.1 65.8,460.8 	"/>
	<rect x="204" y="305.2" class="st0" width="4.9" height="24.8"/>
	<ellipse class="st6" cx="206.5" cy="297.9" rx="11.3" ry="11.3"/>
	<path class="st1" d="M190.2,245.4V330h-44.8v-84.6c0-13.5,9.8-24.4,21.9-24.4h1C180.4,221,190.2,231.9,190.2,245.4z"/>
	<path class="st9" d="M176.7,321.6c0-0.1,0-0.1,0-0.2c-0.2-4.7-4.1-8.4-8.9-8.3c-4.5,0.2-8.1,3.8-8.3,8.3c0,0.1,0,0.1,0,0.2l0,0v8.4
		h17.2L176.7,321.6L176.7,321.6z"/>
	<rect x="155.1" y="276.1" class="st0" width="9.2" height="9.2"/>
	<rect x="171.2" y="276.1" class="st3" width="9.2" height="9.2"/>
	<rect x="171.2" y="260" class="st9" width="9.2" height="9.2"/>
	<circle class="st8" cx="147" cy="453.8" r="2.9"/>
	<path class="st4" d="M143.4,459c1-1,2.3-1.5,3.7-1.5c1.4,0,2.7,0.5,3.7,1.5c1.1,1,1.7,2.4,1.6,3.8c0,1-0.3,2-0.8,2.9
		c-0.5,0.8-1.2,1.4-2,1.8c-0.8,0.4-1.6,0.6-2.5,0.6c-1.8,0-3.5-1-4.5-2.5c-0.6-0.8-0.8-1.8-0.8-2.8C141.7,461.4,142.3,460,143.4,459
		z"/>
	<circle class="st9" cx="147.1" cy="462.8" r="1.9"/>
	<polygon class="st3" points="117,479 123.9,467.6 130.8,479 	"/>
	<rect x="121.3" y="462.5" class="st1" width="5.3" height="5.3"/>
	<polygon class="st3" points="104.3,473.7 111.2,462.3 118.2,473.7 	"/>
	<rect x="108.6" y="457.2" class="st1" width="5.3" height="5.3"/>
	<rect x="114.6" y="414.4" class="st9" width="9.1" height="9.1"/>
	<g>
		<defs>
			<rect id="SVGID_00000123408813272351120510000003269857460550103215_" x="114.6" y="414.4" width="9.1" height="9.1"/>
		</defs>
		<clipPath id="SVGID_00000000193460308787339090000005859905988294914718_">
			<use xlink:href="#SVGID_00000123408813272351120510000003269857460550103215_"  style="overflow:visible;"/>
		</clipPath>
		<g style="clip-path:url(#SVGID_00000000193460308787339090000005859905988294914718_);">
			<circle class="st3" cx="119.2" cy="417.3" r="1.7"/>
			<path class="st4" d="M116.9,420.5c0.6-0.6,1.4-0.9,2.2-0.9c0.8,0,1.6,0.3,2.2,0.9c0.7,0.6,1,1.4,1,2.3c0,0.6-0.2,1.2-0.5,1.7
				c-0.3,0.5-0.7,0.8-1.2,1.1c-0.5,0.2-1,0.4-1.5,0.4c-1.1,0-2.1-0.6-2.7-1.5c-0.3-0.5-0.5-1.1-0.5-1.7
				C115.9,421.9,116.3,421.1,116.9,420.5z"/>
			<circle class="st9" cx="119.2" cy="422.7" r="1.1"/>
		</g>
	</g>
	<path class="st6" d="M201.4,344C201.4,344,201.4,343.9,201.4,344c-0.1-2.7-2.3-4.7-4.9-4.6c-2.4,0.1-4.4,2.1-4.5,4.5
		c0,0,0,0.1,0,0.1l0,0v4.6h9.4V344z"/>
	<rect x="194.1" y="332.7" class="st3" width="5" height="5"/>
	<circle class="st4" cx="168.6" cy="324" r="2.4"/>
	<polygon class="st0" points="162.5,327.5 168.6,337.5 174.7,327.5 	"/>
	<rect x="155.1" y="292.1" class="st9" width="9.1" height="9.1"/>
	<g>
		<defs>
			<rect id="SVGID_00000013882175549427154940000002848937680050323092_" x="155.1" y="292.1" width="9.1" height="9.1"/>
		</defs>
		<clipPath id="SVGID_00000157291392740256560530000010475574927078719659_">
			<use xlink:href="#SVGID_00000013882175549427154940000002848937680050323092_"  style="overflow:visible;"/>
		</clipPath>
		<g style="clip-path:url(#SVGID_00000157291392740256560530000010475574927078719659_);">
			<path class="st6" d="M162.5,300.2L162.5,300.2c0.1-1.6-1.1-3-2.7-3.1c-1.6-0.1-2.9,1.1-3,2.7c0,0.1,0,0.2,0,0.3v0l0,0v2.8h5.7
				V300.2L162.5,300.2z"/>
			<rect x="158.1" y="293.3" class="st3" width="3" height="3"/>
		</g>
	</g>
	<rect x="155.1" y="260" class="st6" width="9.1" height="9.1"/>
	<g>
		<defs>
			<rect id="SVGID_00000107560799741749589560000013290133937962772907_" x="155.1" y="260" width="9.1" height="9.1"/>
		</defs>
		<clipPath id="SVGID_00000056387857224984967650000015205530605071970981_">
			<use xlink:href="#SVGID_00000107560799741749589560000013290133937962772907_"  style="overflow:visible;"/>
		</clipPath>
		<g style="clip-path:url(#SVGID_00000056387857224984967650000015205530605071970981_);">
			<circle class="st4" cx="159.6" cy="262.7" r="1.4"/>
			<polygon class="st0" points="155.9,264.8 159.6,270.9 163.3,264.8 			"/>
		</g>
	</g>
</g>
</svg>
