
<svg version="1.1" id="Layer_1" xmlns="http://www.w3.org/2000/svg" xmlns:xlink="http://www.w3.org/1999/xlink" x="0px" y="0px"
	  viewBox="0 0 709.53333 728.26666"
   height="728.26666"
   width="709.53333" style="enable-background:new 0 0 1999.007 560;" xml:space="preserve">
  
  
  
<path class="line1" style="fill:none;stroke:#fbc01c;stroke-width:15;stroke-miterlimit:400"  d="M256.9,561h-95.4c-28.1,0-50.9-20.1-50.9-45v-1.9c0-24.8,22.8-45,50.9-45h8.7c13.6,0,24.7-9.8,24.8-21.8v-1.9
		c0-12-11-21.8-24.6-21.9c-2.9,0.1-11.2,0.2-14.8,0.2c-74.1,0-127.9-46.7-127.9-111V0.3h12.7v312.6c0,57.8,48.4,99.8,115.2,99.8
		c4.3,0,12.8-0.2,14.5-0.2h0.2c20.7,0.1,37.4,14.9,37.4,33.1v1.9c0,16.1-13.2,29.9-31.2,32.7c-2.6,0.3-5.2,0.5-7.8,0.5h-7.2
		c-21.1,0-38.1,15.1-38.1,33.7l0,0v1.9c0,18.6,17.1,33.7,38.1,33.7l0,0h95.4c21.1,0,38.1-15.1,38.1-33.7l0,0
		c0.2-18.2,16.9-32.9,37.5-33h226.7v11.2H332.5c-13.6,0-24.7,9.7-24.8,21.8C307.7,540.9,284.9,561,256.9,561L256.9,561z"/></svg>