<svg id="Layer_1" data-name="Layer 1" xmlns="http://www.w3.org/2000/svg" viewBox="0 0 864 576"><defs><style>.cls-1{fill:#ffc62f;}.cls-2{fill:#94d4ca;}</style></defs><title>Lykkå_Logo</title><path class="cls-1" d="M307.14,312.78a5.54,5.54,0,0,0-2.93-3.44c-1.46-.73-3.81-1.1-7-1.1H259.51V224.83a29.09,29.09,0,0,0-.73-7.62q-1.9-5.42-12.15-5.41c-6.25,0-9.72,1.29-11.36,3.77a9.26,9.26,0,0,0-1.46,4.06,43.84,43.84,0,0,0-.22,5.05v96.48a23.17,23.17,0,0,0,.88,7.47q1.75,5.56,12,5.56H297a16.47,16.47,0,0,0,7.62-1.46,5.08,5.08,0,0,0,2.49-3.22,21.45,21.45,0,0,0,.73-6.23c0-1.53,0-3.61,0-5A18.54,18.54,0,0,0,307.14,312.78Zm325.33-14.6c-.42-9-1.83-18.3-11.34-27.65a35.66,35.66,0,0,0-25.8-10.47q-14.6,0-25.93,10.54t-11.35,26.74a34.77,34.77,0,0,0,2.58,13.45,15.39,15.39,0,0,1-7.9,2.16c-4,0-6.91-1.13-11.51-4.1s-16.13-13.5-16.13-13.5l14.49-12.3q5.42-4.55,5.42-7.91c0-2.24-1.59-5.35-4.76-9.3s-6-5.93-8.42-5.93-5.54,1.13-9,3.76L521.28,265q-2.64,2.19-8,7.47t-8,7.46V249.85s-.21-9.23-.76-20.85c-.5-10.45-3.78-23.73-12.22-33.95a53.44,53.44,0,0,0-17.22-13.73,50.34,50.34,0,0,0-22.81-5.15,49.11,49.11,0,0,0-22.73,5.23A47.34,47.34,0,0,0,413,195.14c-8.83,11.55-11.44,23.29-12.27,33.86s-.85,20.74-.85,20.74v71.55c0,.37,0,.7,0,1,0,0,.35,20.9,0,27-1.32,23.13-13.78,25.61-20.74,25.61-3.92,0-20.06-.27-20.89-25.37-.18-5.6-.72-9.41,0-15.36,0,0,28.84-49.62,28.84-49.62,1.95-3.42,2.92-6.1,2.92-8.06q0-5.11-7.61-9.66-5.13-3.08-8.05-3.08a8,8,0,0,0-4.69,1.25,9.67,9.67,0,0,0-2.56,2.49c-.54.83-1.34,2.17-2.42,4l-19.18,36.89-19.18-36.89a27.45,27.45,0,0,0-3.88-5.93,6.53,6.53,0,0,0-5.05-2q-3.22,0-8.79,3.22-7.6,4.54-7.61,9.81,0,3.07,2.93,7.91l28.87,49.62v15.36a54.79,54.79,0,0,0,11.59,34.24,41.26,41.26,0,0,0,14.52,12,43,43,0,0,0,19.88,4.58,43.89,43.89,0,0,0,20-4.51,42.53,42.53,0,0,0,14.74-11.8c7.82-10.3,11-18.71,12-34.33.5-8,.06-25.13.06-28.31V310.17q3.66,2.93,10.69,9.88t10.4,9.74l1.46,1q5.72,4.24,8.93,4.25,3.81,0,8.79-6.15,4.53-6,4.54-9.52a6.1,6.1,0,0,0-1-3.07,23,23,0,0,0-4.62-4.69l-19.47-16.1,14.5-12.31q5.42-4.53,5.41-7.9T460.4,266q-4.75-5.92-8.42-5.93c-2.44,0-5.5,1.06-8.91,3.7l-1.63,1.42q-2.62,2.21-8,7.47t-8,7.47V250.4c.44-15.43-.72-29.69,6.75-39.49a24.48,24.48,0,0,1,8.53-7.06,25.14,25.14,0,0,1,11.68-2.69,25.88,25.88,0,0,1,11.72,2.64,26.26,26.26,0,0,1,8.66,6.94c6.52,8,6.19,19.92,6.88,39.66v70.72a46,46,0,0,0,.22,5.27,13.43,13.43,0,0,0,1.24,3.88q2.05,4,11.28,4t11.27-3.8a11.67,11.67,0,0,0,1.39-3.88,46.11,46.11,0,0,0,.22-5.28V310c2.44,1.95,5.89,5.36,10.69,9.88,3.09,2.92,10.43,10.35,18,14.09a48.33,48.33,0,0,0,18.62,4.17,45.06,45.06,0,0,0,20.42-4.61,46.66,46.66,0,0,0,5.68-3.41,36.59,36.59,0,0,0,16.44,4,32.43,32.43,0,0,0,13.55-2.64,17.23,17.23,0,0,0,4.15-2.4,10.57,10.57,0,0,0,1.38-1.49,7.14,7.14,0,0,0,.34,1.18c1,2.48,2.57,5.37,8.95,5.37,5.63,0,8.35-3.33,8.75-7.06S632.63,301.75,632.47,298.18Zm-37.16,14.05c-7.92,0-14.35-6.78-14.35-15.15s6.43-15.15,14.35-15.15,14.35,6.78,14.35,15.15S603.24,312.23,595.31,312.23Z"/><circle class="cls-2" cx="595.2" cy="232.08" r="14.35"/></svg>