<?xml version="1.0" encoding="utf-8"?>
<!-- Generator: Adobe Illustrator 19.0.0, SVG Export Plug-In . SVG Version: 6.00 Build 0)  -->
<svg version="1.1" id="Layer_1" xmlns="http://www.w3.org/2000/svg" xmlns:xlink="http://www.w3.org/1999/xlink" x="0px" y="0px"
	 viewBox="0 0 630 230" style="enable-background:new 0 0 630 230;" xml:space="preserve">
<style type="text/css">
	.line1{fill:none;stroke:#fbc01c;stroke-width:6;stroke-miterlimit:10;}
</style>
<path id="XMLID_5_" class="line1" d="M8.1,0v110.8c0,27.5,20.7,49.1,49.8,49.1h15.8c7,0,11.9,5.7,11.9,12.8c0,5.6-3.2,9.7-8.2,12.2
	c-1.5,0.8-3.2,1.2-5,1.2H56.7c-1.1,0-2.2,0.1-3.3,0.4c-8,1.9-13,6.4-14.9,13.5c-1,3.7-0.9,7.7,0.3,11.4c1.6,5,4.8,8.7,9.7,10.9
	c2.7,1.2,5.7,1.7,8.7,1.7h67.3c9.5,0,17.7-7.8,17.7-19.4c0-8.5,7.4-12.7,14.7-12.7h298.8c7.5,0,13.8-4.1,13.8-12.1
	c0-6-6.2-10.3-14-10.3l-21.1,0.1c-9.8,0-17.7-8-17.7-17.8l0.1-50.5c0-20.2,18.9-30.2,30.3-30.2c18.8,0,30.5,14.9,30.5,32
	c0,7.6,0,11.2,0,14.5c0,19.2,9.4,31.2,31.5,31.2c25.3,0,31.7-17.2,31.7-33.2V60.3c0-15.6,16.2-28.7,32.1-28.7h19.9
	C606,31.6,620.4,17,620.4,0"/>
</svg>
