<?xml version="1.0" encoding="utf-8"?>
<!-- Generator: Adobe Illustrator 19.0.0, SVG Export Plug-In . SVG Version: 6.00 Build 0)  -->
<svg version="1.1" id="Layer_1" xmlns="http://www.w3.org/2000/svg" xmlns:xlink="http://www.w3.org/1999/xlink" x="0px" y="0px"
	 viewBox="156.8 -87.2 420.3 708.1" style="enable-background:new 156.8 -87.2 420.3 708.1;" xml:space="preserve">
<style type="text/css">
	.st0{fill:#FFC627;}
	.st1{fill:#FF595A;}
	.st2{fill:#D9B7E2;}
	.st3{fill:#007F6E;}
	.st4{fill:#D8EEEB;}
	.st5{fill:#FFFFFF;}
	.st6{fill:#3D7CC9;}
	.st7{fill:#93DACF;}
	.st8{fill:#221F20;}
	.st9{clip-path:url(#SVGID_2_);}
</style>
<path class="st0" d="M440.2,34.1l203.7-1.9c26.8-0.3,48.8,21.3,49,48.1c0.4,24.6,20.7,44.4,45.2,44.2l110.9-1v-12.7l-111.1,1
	c-17.6,0.2-32.2-14-32.4-31.6c-0.2-16.3-6.7-31.6-18.4-43.1c-11.7-11.4-27.1-17.7-43.5-17.6l-203.6,1.9c-33.8,0.3-61,28-60.7,61.8
	l0,2.6c0.3,33.8,28,61,61.9,60.6l49.9-0.5c17.7-0.2,32.2,14.1,32.4,31.7l0,2.6c0.2,17.6-14,32.1-31.6,32.3c-3.5,0-38.9,0.1-43.3,0.1
	c-90.7,0.8-155.7,66-154.9,154.8c0.9,88.7,64.3,153.1,151.9,153.9l331.4,3.1l0.1-12.7l-331.3-3.1c-80.3-0.8-138.4-60-139.4-141.2
	c-0.8-81.6,59.1-141.3,142.3-142.1c5.3,0,40.9-0.1,43.1-0.1l0.2,0c24.6-0.3,44.5-20.6,44.2-45.2l0-2.6
	c-0.2-22.5-17.1-41.1-38.9-43.9c0,0-2.4-0.4-6.4-0.4c-3.9,0-49.9,0.5-49.9,0.5c-26.8,0.3-48.8-21.3-49-48.1l0-2.6
	C391.8,56.3,413.4,34.4,440.2,34.1z"/>
<path class="st1" d="M459.9,301.8c0-8.8,7.2-16.1,16.2-16.1h0.8c8.8,0,16.1,7.2,16.1,16.1v56h-33V301.8"/>
<rect x="444" y="339.6" class="st2" width="3.6" height="18.2"/>
<path class="st3" d="M437.5,334.2L437.5,334.2c0-4.7,3.7-8.3,8.3-8.3l0,0c4.6,0,8.3,3.7,8.3,8.3c0,4.6-3.7,8.3-8.3,8.3
	C441.2,342.5,437.5,338.7,437.5,334.2"/>
<rect x="479" y="306.2" class="st3" width="6.8" height="6.8"/>
<rect x="479" y="318.1" class="st2" width="6.8" height="6.8"/>
<rect x="467.1" y="318.1" class="st4" width="6.8" height="6.8"/>
<rect x="479" y="329.7" class="st5" width="6.8" height="6.8"/>
<rect x="467.1" y="306.2" class="st5" width="6.8" height="6.8"/>
<rect x="470.5" y="344.2" class="st5" width="11.7" height="13.8"/>
<path class="st2" d="M388.7,430.1v25.4H434v-70.8C409,384.8,388.8,405.1,388.7,430.1"/>
<path class="st1" d="M421.2,447v-0.1c-0.2-4.8-4.2-8.5-9-8.4c-4.5,0.2-8.2,3.8-8.4,8.4v0.1l0,0v8.5h17.4V447z"/>
<rect x="452.1" y="398.2" class="st2" width="4.9" height="25.1"/>
<path class="st3" d="M466.1,395c0,6.3-5.1,11.4-11.4,11.5c-6.3,0-11.4-5.1-11.5-11.4c0-6.3,5.1-11.4,11.4-11.5l0,0
	C460.9,383.6,466.1,388.7,466.1,395L466.1,395"/>
<rect x="371.8" y="446.8" class="st2" width="4.9" height="8.7"/>
<path class="st3" d="M383,441.8c0,4.8-3.9,8.8-8.8,8.8c-4.9,0-8.8-3.9-8.8-8.8c0-4.8,3.9-8.8,8.8-8.8l0,0
	C379.1,433,383,436.9,383,441.8"/>
<rect x="415.9" y="419.8" class="st6" width="9.3" height="9.3"/>
<rect x="399.7" y="419.8" class="st5" width="9.3" height="9.3"/>
<rect x="415.9" y="403.9" class="st3" width="9.3" height="9.3"/>
<path class="st7" d="M480.3,481.2h41.3v-55c0-22.8-18.4-41.3-41.3-41.3V481.2z"/>
<rect x="488.9" y="444.8" class="st3" width="8.5" height="8.5"/>
<path class="st3" d="M493.2,470.2v11.1H509v-11.1l0,0V470c-0.2-4.2-3.5-7.5-7.6-7.6c-4.4-0.1-8,3.2-8.2,7.6
	C493.1,470.1,493.1,470.1,493.2,470.2L493.2,470.2z"/>
<rect x="488.9" y="415.4" class="st1" width="8.5" height="8.5"/>
<rect x="503.8" y="430.3" class="st8" width="8.5" height="8.5"/>
<rect x="488.9" y="430.3" class="st5" width="8.5" height="8.5"/>
<g>
	<g>
		<defs>
			<rect id="SVGID_1_" x="488.9" y="430.3" width="8.5" height="8.5"/>
		</defs>
		<clipPath id="SVGID_2_">
			<use xlink:href="#SVGID_1_"  style="overflow:visible;"/>
		</clipPath>
		<g class="st9">
			<path class="st5" d="M492.2,438.2c0-0.6,0.5-1.1,1.1-1.1l0,0c0.6,0,1.1,0.5,1.1,1.1c0,0.6-0.5,1.1-1.1,1.1
				C492.7,439.2,492.2,438.7,492.2,438.2"/>
		</g>
	</g>
</g>
<polygon class="st3" points="528.9,481 535.4,458.3 541.9,481 "/>
<polygon class="st3" points="541.6,481 546.4,464.5 551,481 "/>
</svg>
