<?xml version="1.0" encoding="utf-8"?>
<!-- Generator: Adobe Illustrator 25.4.0, SVG Export Plug-In . SVG Version: 6.00 Build 0)  -->
<svg version="1.1" id="Layer_1" xmlns="http://www.w3.org/2000/svg" xmlns:xlink="http://www.w3.org/1999/xlink" x="0px" y="0px"
	 viewBox="0 0 900 900" style="enable-background:new 0 0 900 900;" xml:space="preserve">
<style type="text/css">
	.st0{fill:#FFC627;}
</style>
<g id="XMLID_2_">
	<path id="XMLID_3_" class="st0" d="M892.3,441.4c0,113.2-83.7,195.5-199.2,195.4c-5.7,0-50.8-0.3-55.2-0.4
		c-22.5,0.1-40.7,18.4-40.7,40.8v3.3c0,22.5,18.4,40.8,40.9,40.8h63.6c43.1,0,78.1,35,78.1,78v3.3c0,43-35.1,78-78.1,78H442.3
		c-20.9,0-40.4-8.2-55.2-22.9c-14.8-14.8-22.9-34.3-22.9-55.1c-0.1-22.4-18.5-40.6-40.9-40.6H7.9v-16.2h315.3
		c31.3,0,56.9,25.5,57.1,56.8c0,34.1,27.8,61.8,61.9,61.8h259.5c34.1,0,61.9-27.7,61.9-61.8v-3.3c0-34.1-27.8-61.8-61.9-61.8
		c0,0-58.6,0-63.6,0s-8.1-0.6-8.1-0.6c-27.7-3.9-49-27.7-49-56.4v-3.3c0-31.3,25.5-56.9,56.9-57h0.3c2.8,0.1,48.2,0.4,54.9,0.4
		c106,0,183-75.4,183-179.3V19.2h16.2V441.4L892.3,441.4z"/>
</g>
</svg>
